<svg xmlns="http://www.w3.org/2000/svg" viewBox="0 0 96 96" role="img" aria-labelledby="title desc">
  <title id="title">SIKA Logo</title>
  <desc id="desc">Monogramme SIKA sur fond bleu.</desc>
  <defs>
    <linearGradient id="bg" x1="0%" y1="0%" x2="100%" y2="100%">
      <stop offset="0%" stop-color="#223773" />
      <stop offset="100%" stop-color="#111c44" />
    </linearGradient>
    <linearGradient id="accent" x1="0%" y1="0%" x2="100%" y2="100%">
      <stop offset="0%" stop-color="#67e8f9" />
      <stop offset="100%" stop-color="#fbbf24" />
    </linearGradient>
  </defs>
  <rect width="96" height="96" rx="24" fill="url(#bg)" />
  <path
    d="M29 30c5-6 12-9 21-9 8 0 14 2 20 6l-5 9c-5-3-10-5-15-5-5 0-9 2-11 5-2 4 0 7 6 9l11 3c12 3 17 10 14 20-4 13-17 18-32 16-8-1-15-4-20-9l6-9c5 4 10 7 17 8 7 1 13-1 15-6 2-4-1-7-8-9l-10-3c-12-3-17-10-14-20 1-2 3-4 5-6Z"
    fill="url(#accent)"
  />
  <circle cx="73" cy="24" r="5" fill="#67e8f9" opacity="0.9" />
</svg>
